<?xml version="1.0" ?><svg viewBox="0 0 32 32" xmlns="http://www.w3.org/2000/svg"><defs><style>.cls-1{fill:none;}</style></defs><title/><g data-name="Layer 2" id="Layer_2"><path d="M26,25H6a3,3,0,0,1-3-3V20a1,1,0,0,1,1-1,3,3,0,0,0,0-6,1,1,0,0,1-1-1V10A3,3,0,0,1,6,7H26a3,3,0,0,1,3,3v2a1,1,0,0,1-1,1,3,3,0,0,0,0,6,1,1,0,0,1,1,1v2A3,3,0,0,1,26,25ZM5,20.9V22a1,1,0,0,0,1,1H26a1,1,0,0,0,1-1V20.9a5,5,0,0,1,0-9.8V10a1,1,0,0,0-1-1H6a1,1,0,0,0-1,1v1.1a5,5,0,0,1,0,9.8Z"/><path d="M13,10a1,1,0,0,1-1-1V8a1,1,0,0,1,2,0V9A1,1,0,0,1,13,10Z"/><path d="M13,25a1,1,0,0,1-1-1V23a1,1,0,0,1,2,0v1A1,1,0,0,1,13,25Z"/><path d="M13,14a1,1,0,1,1,.71-.29A1.05,1.05,0,0,1,13,14Z"/><path d="M13,17a1,1,0,1,1,.71-.29,1,1,0,0,1-.33.21A1,1,0,0,1,13,17Z"/><path d="M13,20a1,1,0,1,1,.71-.29A1.05,1.05,0,0,1,13,20Z"/></g><g id="frame"><rect class="cls-1" height="32" width="32"/></g></svg>